<svg width="476" height="144" viewBox="0 0 476 144" fill="none" xmlns="http://www.w3.org/2000/svg">
<g clip-path="url(#clip0_25_438)">
<path d="M8 99.06V57.04C7.77 55.2 7.52 53.37 7.25 51.55C7.04 50.15 6.71 48.76 6.56 47.36C6.27 44.59 6.35 41.75 6.28 38.97C6.24 37.59 6.18 36.21 6.17 34.82C6.15 33.54 6.17 32.26 6.33 31C6.46 29.97 6.59 28.94 6.72 27.91C7.11 24.78 7.5 21.65 7.94 18.52C7.96 18.39 7.98 18.26 8 18.13V7.08C8 5.82 7.21 4.69 6.03 4.26L0 2.06V89.06H5V99.06H8Z" fill="white"/>
<path d="M469.97 6.27002C468.79 6.70002 468 7.83002 468 9.09002V20.24C468.07 20.66 468.14 21.09 468.2 21.52C468.62 24.64 469.01 27.77 469.4 30.9C469.88 34.77 469.76 38.58 469.66 42.48C469.59 45.13 469.68 47.84 469.16 50.45C468.92 51.67 468.75 52.9 468.57 54.14C468.37 55.57 468.18 57 468 58.43V89.08H473V99.07H476V4.08002L469.97 6.28002V6.27002Z" fill="white"/>
<path d="M43.17 1.43C43.13 1 42.96 0.58 42.82 0C40.59 0.88 38.46 1.66 36.4 2.6C35.98 2.79 35.62 3.6 35.63 4.11C35.7 9.12 35.98 14.13 35.96 19.13C35.95 23.48 35.54 27.83 35.48 32.18C35.42 36.82 36.06 41.51 35.54 46.08C34.52 55.19 35.39 64.25 35.45 73.33C35.45 73.91 35.31 74.67 35.61 75.03C38.24 78.21 36.54 81.73 36.49 85.11C36.47 86.38 36.27 87.65 36.14 89.06H41V99.05H44V24.29C44 24.29 44.02 24.25 44.02 24.23C44.66 22.58 45.1 21.02 44.89 19.19C44.22 13.28 43.73 7.35 43.16 1.43H43.17Z" fill="white"/>
<path d="M113 99.06H116V82.69C117.15 73.19 118.46 70.2 118.6 65.36C118.26 47.32 117.75 41.42 118.88 32.34C119.03 31.16 118.92 29.97 118.86 28.78C118.45 21.19 116.01 8.57 115.65 5.15C115.34 2.2 113.67 1.48 106.64 1.06C107.65 9.53 108.8 18.38 108.8 18.38C108.51 20.5 108.63 22.74 108.85 25.01C109.76 25.86 111.32 26.94 111.32 26.94C110.59 27.7 109.9 29.12 109.36 30.49C109.46 32.1 109.47 33.69 109.27 35.22C108.66 39.77 108.58 44.27 107.69 49.83C108.03 54.14 109.69 58.47 109.73 62.79C108.63 74.08 108.1 74.78 108.1 74.78C107.82 77.85 108.03 80.46 108.03 83.59C109.69 83.42 111.35 83.23 113.02 83.04V99.08L113 99.06Z" fill="white"/>
<path d="M458 99.06V75.87H457.98L457.96 48.84C458.05 47.11 456.88 45.57 456.91 43.86C456.94 42.07 457.53 33.43 458.19 31.73C458.83 30.08 459.27 28.52 459.06 26.69C458.47 21.5 457.53 13.09 456.93 7.10997C456.79 5.73997 455.74 4.64997 454.37 4.44997L449.29 3.71997C449.58 9.30997 449.5 17.48 449.49 22.49C449.49 25.08 449.34 27.66 449.21 30.25C450.13 31.05 451.4 31.93 451.4 31.93C450.47 32.9 449.6 34.96 449.02 36.59C449.06 40.75 449.55 44.22 449.08 48.45C448.06 57.56 448.74 53.35 448.99 62.43C449.04 64.25 448.99 65.38 449.3 65.74C451.93 68.92 449.91 85.38 449.85 88.76C451.64 88.8 453.35 88.84 454.99 88.88V99.06H457.99H458Z" fill="white"/>
<path d="M312.72 4.15998C312.68 3.72998 312.51 3.30998 312.37 2.72998C310.14 3.60998 308.01 4.38998 305.95 5.32998C305.53 5.51998 305.17 6.32998 305.18 6.83998C305.25 11.85 305.53 16.86 305.51 21.86C305.5 26.21 305.09 30.56 305.03 34.91C304.97 39.55 305.61 43.24 305.09 47.81C304.07 56.92 304.94 52.71 305 61.79C305 62.37 304.86 63.13 305.16 63.49C307.79 66.67 306.05 70.42 305.99 73.8C307.64 74.17 309.32 74.51 310.99 74.86V99.05H313.99V56.07C314.09 54.34 312.92 52.8 312.95 51.09C313.06 44.56 312.75 50.81 312.85 44.28C312.88 42.49 313.57 40.66 314.24 38.95C314.88 37.3 315.32 35.74 315.11 33.91C314.44 28 313.29 10.05 312.71 4.12998L312.72 4.15998Z" fill="white"/>
<path d="M403.84 25.04C404.48 23.39 404.92 21.83 404.71 20C404.04 14.09 403.55 9.16 402.98 3.24C402.94 2.81 402.77 2.39 402.63 1.81C400.4 2.69 398.27 3.47 396.21 4.41C395.79 4.6 395.43 5.41 395.44 5.92C395.51 10.93 395.79 14.94 395.77 19.94C395.76 24.29 394.35 28.64 394.29 32.99C394.25 36.63 394.42 57.88 393.51 67.69C393.3 69.97 393.68 71.56 394.43 72.07C397.06 75.25 396.36 78.77 396.31 82.15C396.29 83.42 396.09 84.69 395.96 86.1H396C397.34 86.2 398.67 86.3 400 86.39V99.05H404V54.67C404.09 52.94 402.52 47.88 402.55 46.17C402.66 39.64 402.35 36.89 402.45 30.36C402.48 28.57 403.17 26.74 403.84 25.03V25.04Z" fill="white"/>
<path d="M340.93 3.72998C341.7 9.82998 342.56 15.55 342.91 17.89C343.89 18.56 345.15 19.25 345.15 19.25C344.18 20.49 343.47 23.21 343.1 24.93C343.42 28.28 343.99 31.7 343.54 34.84C342.93 39.12 342.85 43.35 341.96 48.58C342.3 52.63 343.96 56.7 344 60.77C342.9 71.39 342.37 72.05 342.37 72.05C342.09 74.94 341.98 77.39 341.98 80.33H342C343.66 80.57 345.33 80.79 347 81.02V99.07H350V81.44C351.15 72.5 352.13 57.07 352.13 51.9C351.72 44.76 350.3 10.79 349.94 7.57998C349.63 4.80998 347.96 4.12998 340.93 3.73998V3.72998Z" fill="white"/>
<path d="M386 14.54V1.41998L380.18 4.38998C378.84 5.06998 378 6.44998 378 7.94998V31.49C378.89 31.98 379.78 32.39 379.78 32.39C378.61 34.12 378.05 38.41 377.93 39.5C377.46 44.31 376.75 49.08 375.82 53.83C375.59 55.03 375.36 56.27 375.45 57.5C375.54 58.72 375.86 59.91 376.14 61.1C376.76 63.71 377.38 66.32 377.99 68.92V84.59C379.67 84.75 381.33 84.89 382.99 85.04V99.07H385.99V85.31L386.73 70.09C386.83 68.46 386.85 66.82 386.81 65.18L385.98 14.54H386Z" fill="white"/>
<path d="M63.19 55.83C63.34 43.08 62.41 36.28 62 26.32V24.06H61.92C61.85 21.62 61.81 18.98 61.82 16L61.85 14.62L63.17 6.59003C63.17 5.65003 63.25 4.68003 63.13 3.76003C63.06 3.27003 62.68 2.54003 62.37 2.48003C59.05 1.80003 55.72 1.22003 52.22 0.590027C52.22 4.55003 52.31 8.24003 52.19 11.92C52.08 15.37 53.46 19.92 54.41 23.14C54.61 23.82 54.79 24.5 54.94 25.18V30.16C54.67 31.56 54.33 32.94 53.86 34.29C53.23 36.08 52.27 37.6 52.39 39.56C52.5 41.38 52.86 43.21 53.07 45.02C53.29 46.97 53.51 48.91 53.74 50.86L54.95 61.48L54.01 87.71C55.65 87.63 57.32 87.54 59.01 87.45V99.05H62.01V66.53C62.47 63 63.15 59.7 63.2 55.81L63.19 55.83Z" fill="white"/>
<path d="M99.22 38.8C98.29 37.71 98.3 35.53 98.23 32.88C98.23 32.88 98.8 20.8 99.83 17.06C100.62 14.15 98.47 9.43998 97.98 4.05998C97.86 2.82998 97.01 1.78998 95.8 1.44998L90 0.599976V7.81998C89.87 11 89.43 14.16 88.9 17.31C88.51 19.62 87.77 22.14 87.9 24.5C87.94 25.18 88.19 25.78 88.33 26.43C88.53 27.36 88.65 28.3 88.76 29.24C89.06 31.87 89.25 34.51 89.43 37.15C89.61 39.77 90.77 48.38 90.97 51C90.97 51.12 91 51.23 91.03 51.34L90.01 85.31C91.66 85.17 93.34 85.01 95.01 84.86V99.07H98.01V84.59C98.01 84.59 98.54 64.71 100.66 55.63C100.66 51.59 100.66 47.56 100.66 43.52C100.66 41.82 100.54 40.34 99.23 38.81L99.22 38.8Z" fill="white"/>
<path d="M224.05 6.2C223.94 4.97 223.14 3.93 222 3.59L216.32 2L215.43 17.59C215.38 18.47 215.38 19.35 215.42 20.23C215.67 26.56 216.01 58.97 216.01 58.97C217.74 58.15 219.4 57.3 221.01 56.43V99.06H224.01V54.75L224.79 42.89C224.85 41.92 224.68 40.96 224.29 40.07L224.15 39.74C223.27 38.65 223.28 36.47 223.22 33.82C223.22 33.82 223.76 21.74 224.72 18C225.47 15.09 224.51 11.57 224.06 6.18L224.05 6.2Z" fill="white"/>
<path d="M26.6201 3.73998C23.6001 3.24998 19.8201 2.67998 16.6401 2.22998C16.6401 5.04998 16.7201 7.67998 16.6201 10.3C16.5201 12.76 16.9201 15.07 17.7801 17.36C17.7901 17.39 17.8001 17.43 17.8101 17.46L15.9401 60C15.9201 63.08 17.1801 69.98 18.0001 72.95V88.93C19.5801 88.9 21.2601 88.87 23.0001 88.83V99.06H26.0001V68.11C25.3901 67.3 23.6601 66.39 23.6601 66.39C24.4601 65.53 25.5501 60.82 26.0001 58.75V50.58C25.9601 50.27 25.9201 49.95 25.8801 49.64C25.4501 46.06 24.6801 42.23 25.0001 38.63C25.2001 36.37 25.9701 34.21 26.3401 31.98C26.5401 23.15 26.9301 18.46 27.3501 6.66998C27.3501 5.99998 27.4201 5.30998 27.3101 4.65998C27.2501 4.30998 26.9001 3.78998 26.6201 3.74998V3.73998Z" fill="white"/>
<path d="M79.98 41.78C79.92 40.39 79.86 39 79.79 37.61C79.74 36.68 79.69 35.74 79.65 34.81C79.91 23.52 80.12 11.75 80.36 0.599976C78 1.57998 76.07 2.43998 74.07 3.18998C72.9 3.61998 72.67 4.21998 72.66 5.25998C72.64 8.22998 72.67 11.23 72.14 14.16C71.18 19.49 70.26 26.14 71.25 31.54C71.56 33.24 71.67 34.99 71.64 36.72C71.41 50.25 71.02 63.79 70.91 77.32C70.89 80.12 71.57 82.92 72.03 85.72L71.98 86.67C72.04 86.67 72.11 86.67 72.17 86.66C72.17 86.66 72.17 86.66 72.17 86.67C72.35 86.67 72.52 86.64 72.7 86.62C74.11 86.52 75.55 86.42 76.97 86.32V99.06H79.97V86.11L81.08 68.47C81.39 66.89 78.68 44.71 78.09 43.14C78.09 43.14 79.01 42.52 79.95 41.79L79.98 41.78Z" fill="white"/>
<path d="M152.91 54.27C152.56 53.09 152.53 51.75 152.4 50.53C152.2 48.54 152.05 46.55 151.91 44.56C151.2 43.81 149.57 43.06 149.57 43.06C150.29 42.2 151.09 37.81 151.45 35.59C151.39 34.03 151.33 32.47 151.27 30.91C151.27 28.77 151.31 26.7 151.38 24.65C150.82 23.82 149.88 22.95 149.88 22.95C150.28 22.7 150.88 21.86 151.53 20.82C151.75 15.99 152.03 11.22 152.09 6.09003C152.1 5.19003 151.76 3.89003 150.05 3.46003L145.88 1.84003C145.88 1.84003 143.99 17.61 142.41 23.29C141.65 26.04 143.98 49.35 143.98 78.78C145.66 78.51 147.32 78.21 148.98 77.92V99.05H151.98V70.12C152.12 69 152.25 67.87 152.4 66.75C152.63 65 152.88 63.26 153.18 61.52C153.43 60.06 154.04 58.43 153.8 56.96C153.64 56.01 153.17 55.17 152.89 54.25L152.91 54.27Z" fill="white"/>
<path d="M295.57 43.14C294.52 42 294.06 40.45 294.32 38.92C294.96 35.08 296.32 28.66 295.73 27.57C295.17 26.74 293.92 24.94 293.92 24.94C294.32 24.69 294.92 23.85 295.57 22.81C295.79 17.98 296.07 13.21 296.13 8.08002C296.14 7.18002 295.8 5.88002 294.09 5.45002L289.92 3.83002C289.92 3.83002 288.03 19.6 286.45 25.28C285.72 27.91 287.82 41.66 288 69.23C289.64 69.7 291.32 70.16 293 70.61V99.06H296V71.41H296.02C296.25 69.66 297.41 52.24 297.96 47.8C298.21 45.79 296.43 44.07 296.43 44.07C296.21 43.84 295.9 43.5 295.57 43.14Z" fill="white"/>
<path d="M198 66.13C199.7 65.56 201.36 64.97 203 64.37V99.06H206V63.25C206.44 54.21 206.73 50.28 206.86 48.77C206.88 48.53 207.2 45.87 207.53 42.74C206.83 42.12 205.95 41.58 205.95 41.58C206.57 40.99 206.44 36.87 207.11 34.69C207.22 33.21 207.29 31.97 207.26 31.23C207.26 22.61 206.21 10.1 205.92 7.02998C205.6 3.70998 202.88 2.91998 202.88 2.91998L197.47 1.03998L197.88 9.88998C198.48 10.66 199.63 11.68 199.63 11.68C198.93 13.12 198.45 16.54 198.26 18.1L198.77 29.06C198.76 33.34 196.76 49.22 196.96 52.69C197.03 53.94 197.26 55.18 197.46 56.42C197.83 59.74 197.84 63.62 197.97 66.13H198Z" fill="white"/>
<path d="M132.76 3.53003C130.87 2.29003 128.14 1.39003 125.25 0.0900269C124.86 3.28003 123.47 10.72 123.83 14.3C124.57 21.63 126.07 29.36 125.34 36.45C125.37 37.14 125.76 37.75 126 40.62V53.35C125.63 55 125.24 56.65 124.81 58.28C124.58 59.16 124.57 59.84 124.7 60.74C125.18 63.95 125.6 67.17 125.78 70.41C125.85 71.74 125.91 73.08 126 74.41V81.43C127.67 81.21 129.33 80.97 131 80.74V99.06H134V42.92C134.26 40.94 134.52 38.96 134.79 36.97C134.99 35.5 135.11 33.95 135.38 32.47C134.21 23.72 134.37 14.82 133.89 5.98003C133.84 5.12003 133.43 3.96003 132.75 3.52003L132.76 3.53003Z" fill="white"/>
<path d="M162.06 75.51C162.06 75.51 162.06 75.51 162.06 75.5C162.04 75.5 162.02 75.5 162 75.51H162.06Z" fill="white"/>
<path d="M169.23 49.83C168.96 44.46 169.04 42.08 168.92 36.7C168.85 33.66 168.74 30.62 168.84 27.58C168.92 25.25 170.69 23.13 170.14 20.59C169.02 15.4 169.18 10.11 168.73 4.86001C168.69 4.36001 168.31 3.68001 167.68 3.41001C165.93 2.68001 163.97 2.13001 161.75 1.39001C161.88 16.07 162.21 28.04 162.41 38.82C161.81 40.98 161.06 43.54 160.21 46.27C160.21 46.27 162.64 57.97 162.51 63.19C162.43 67.26 162.29 71.32 162.06 75.5C163.72 75.16 165.35 74.8 167 74.45V99.07H170V69.21C170.23 64.08 170.91 58.68 169.23 49.84V49.83Z" fill="white"/>
<path d="M331.91 25.15C332.13 14.37 332.12 17.6 332.27 2.92999C329.83 3.66999 327.68 4.21999 325.76 4.94999C325.07 5.20999 324.65 5.88999 324.6 6.39999C324.11 11.65 324.28 16.94 323.05 22.13C322.45 24.67 324.39 26.79 324.48 29.12C324.59 32.16 324.46 35.2 324.39 38.24C324.26 43.62 324.35 45.99 324.05 51.37C321.66 62.85 323.64 70.09 323.99 77.42C325.65 77.72 327.32 77.99 328.99 78.28V99.07H331.99V78.79C332.1 74.81 332.08 68.86 331.99 64.79C331.88 60.88 333.03 53.3 333.62 49.75C333.83 48.47 333.72 47.16 333.31 45.94C332.64 43.92 332.41 26.82 331.9 25.16L331.91 25.15Z" fill="white"/>
<path d="M188.78 33.53C188.18 32.68 188.19 30.98 188.15 28.92C188.15 28.92 188.52 19.5 189.17 16.58C189.68 14.31 188.3 10.64 187.99 6.44003C187.99 6.44003 187.98 6.44003 187.97 6.44003V5.41003C187.97 4.72003 188.06 4.02003 187.93 3.35003C187.86 3.00003 187.44 2.46003 187.11 2.41003L180.01 1.03003C180.01 3.92003 179.51 35.18 179.38 37.86C179.26 40.37 181.07 46.79 181.07 54.88L180.01 71.4C181.7 70.97 183.36 70.52 185.01 70.07V99.06H188.01V69.24C188.01 69.24 188.35 53.74 189.71 46.66C189.71 43.51 189.71 40.37 189.71 37.22C189.71 35.9 189.64 34.74 188.8 33.54L188.78 33.53Z" fill="white"/>
<path d="M420.1 3.65001L415.93 3.07001C414.17 3.07001 413.88 5.05001 413.89 6.07001C413.96 11.91 414.24 17.34 414.46 22.84C415.1 24.02 415.71 24.98 416.11 25.26C416.11 25.26 415.18 26.24 414.62 27.19C414.69 29.61 414.74 32.07 414.73 34.6C414.73 34.73 414.73 34.88 414.73 35.01C414.68 36.56 414.61 38.11 414.55 39.66C414.92 42.19 415.72 47.18 416.43 48.15C416.43 48.15 414.81 49 414.1 49.85C414.01 51.38 413.91 52.9 413.79 54.43C413.58 57.12 413.48 59.83 412.61 62.35C411.93 64.32 412.26 65.88 412.59 67.87C412.9 69.72 413.14 71.59 413.37 73.46C413.64 75.62 413.86 77.78 414.1 79.94L414 87.29C415.69 87.39 417.35 87.48 419 87.56V99.06H422V87.72C422.05 54.78 424.32 28.75 423.57 25.65C422 19.18 420.1 3.65001 420.1 3.65001Z" fill="white"/>
<path d="M434.46 5.57999C433.8 6.04999 433.41 7.26999 433.36 8.16999C432.92 16.91 432.2 26.55 431.15 35.34C431.35 36.74 431.48 38.17 431.67 39.54C431.98 41.81 432.27 44.08 432.57 46.35C432.58 46.44 432.58 46.43 432.57 46.41C432.57 46.41 432.57 46.42 432.57 46.43C432.62 46.84 432.68 47.24 432.71 47.65C432.79 48.73 432.73 49.82 432.71 50.9C432.64 53.34 432.57 55.79 432.51 58.23C432.48 59.14 432.4 60.04 432.29 60.93L432 88.18C433.71 88.25 435.36 88.31 437 88.37V99.07H440V81C440.09 79.6 440.15 78.2 440.22 76.8C440.39 73.39 440.8 70.01 441.26 66.64C441.39 65.7 441.38 64.98 441.16 64.06C440.75 62.34 440.37 60.61 440.01 58.88V45.51C440.24 42.49 440.62 41.85 440.65 41.13C439.94 33.69 441.39 25.56 442.1 17.86C442.45 14.09 441.12 6.27999 440.74 2.92999L434.46 5.57999Z" fill="white"/>
<path d="M257 57.48V99.06H260V45.13L259.46 38.44L260.74 13.49C260.79 12.75 260.75 12.01 260.64 11.27L259.95 6.93001C259.95 6.93001 259.94 6.85001 259.93 6.81001V6.78001V6.79001C259.59 5.14001 258.24 3.84001 256.51 3.62001L252.94 2.51001L252.02 17.8C251.82 19.69 251.59 21.58 251.34 23.46C251.1 25.21 250.84 26.96 250.57 28.7C250.3 30.41 251.86 52.99 252.02 54.75C253.62 55.68 255.29 56.59 257.02 57.48H257Z" fill="white"/>
<path d="M278.9 34.56C278.09 33.61 278.1 31.71 278.04 29.41C278.04 29.41 278.54 18.89 279.43 15.63C280.02 13.46 278.86 10.7 278.25 7.02C278.05 5.83 277.19 4.86 276.02 4.57L270.49 3.19C270.63 3.43 270.72 3.72 270.72 4.07C270.6 8.94 270.57 13.81 270.57 18.67C270.57 27.72 270.66 36.76 270.71 45.81C270.73 49.27 270.33 52.75 270 56.21V63.26C271.63 63.89 273.3 64.5 275 65.1V99.07H278V66.14C278 66.14 278.3 57.14 280.15 49.23C280.15 45.71 280.15 42.2 280.15 38.68C280.15 37.2 280.05 35.91 278.91 34.57L278.9 34.56Z" fill="white"/>
<path d="M234.32 6.89001L232.62 13.75C232.44 14.75 232.38 15.77 232.46 16.79C232.84 21.85 234 38.37 234 47.8C235.44 46.59 236.78 45.35 238 44.07C238.32 44.4 238.67 44.73 239 45.06V99.07H242V24.06H241.14C241.35 21.65 241.69 18.63 242 16.06V2.51001L236.66 3.60001C234.64 4.28001 234.32 6.89001 234.32 6.89001Z" fill="white"/>
<path d="M361.5 4.71003C360.62 4.94003 360 5.73003 360 6.65003V24.68C360.48 31.28 360.97 37.89 361.37 44.5C361.61 48.42 361.72 52.35 361.44 56.27C361.16 60.16 360.59 64.01 360 67.86V82.68C361.67 82.88 363.33 83.06 365 83.24V99.06H368V50.36C368.12 45.87 369.98 40.89 369.95 37.62C368.24 27.63 368.69 13.12 368 3.03003L361.5 4.71003Z" fill="white"/>
<path d="M205.97 136.04C205.37 135.76 204.59 135.48 203.64 135.2C202.94 134.99 202.4 134.8 202.01 134.64C201.63 134.48 201.3 134.27 201.04 134.01C200.78 133.75 200.65 133.43 200.65 133.03C200.65 132.47 200.82 132.04 201.16 131.75C201.5 131.46 201.96 131.31 202.54 131.31C203.2 131.31 203.73 131.47 204.12 131.8C204.52 132.13 204.73 132.55 204.76 133.05H207.99C207.89 131.73 207.37 130.71 206.43 129.97C205.48 129.24 204.26 128.87 202.74 128.87C201.73 128.87 200.84 129.04 200.05 129.38C199.27 129.72 198.66 130.22 198.22 130.86C197.79 131.5 197.57 132.26 197.57 133.13C197.57 134.05 197.78 134.79 198.21 135.35C198.64 135.9 199.15 136.32 199.74 136.59C200.34 136.86 201.11 137.14 202.06 137.42C202.76 137.62 203.31 137.79 203.71 137.96C204.11 138.12 204.44 138.34 204.71 138.62C204.98 138.9 205.11 139.26 205.11 139.69C205.11 140.22 204.91 140.65 204.52 140.98C204.13 141.31 203.59 141.47 202.9 141.47C202.21 141.47 201.7 141.29 201.31 140.94C200.92 140.59 200.71 140.11 200.67 139.51H197.52C197.53 140.41 197.78 141.18 198.25 141.84C198.73 142.5 199.37 143 200.19 143.35C201.01 143.7 201.93 143.87 202.95 143.87C204.03 143.87 204.96 143.67 205.74 143.27C206.52 142.87 207.12 142.33 207.53 141.66C207.94 140.99 208.14 140.26 208.14 139.48C208.14 138.57 207.92 137.84 207.49 137.27C207.06 136.71 206.54 136.29 205.94 136.01L205.97 136.04Z" fill="white"/>
<path d="M251.93 131.46H255.84V143.74H258.78V131.46H262.69V129.09H251.93V131.46Z" fill="white"/>
<path d="M309.77 129.09H306.83V143.75H309.77V129.09Z" fill="white"/>
<path d="M357.61 129.09H354.67V143.74H362.44V141.41H357.61V129.09Z" fill="white"/>
<path d="M409.24 129.09H406.31V143.74H414.08V141.41H409.24V129.09Z" fill="white"/>
<path d="M462.31 129.07L457.04 143.75H460.13L461.1 140.96H466.94L467.91 143.75H471.02L465.75 129.07H462.33H462.31ZM461.89 138.61L464.01 132.48L466.13 138.61H461.89Z" fill="white"/>
<path d="M12.18 140.72L8.15 129.07H5L10.38 143.72H13.95L19.32 129.07H16.2L12.18 140.72Z" fill="white"/>
<path d="M66.03 129.07H63.09V143.73H66.03V129.07Z" fill="white"/>
<path d="M120.52 139.13L113.87 129.05H110.93V143.72H113.87V133.66L120.52 143.72H123.46V129.05H120.52V139.13Z" fill="white"/>
</g>
<defs>
<clipPath id="clip0_25_438">
<rect width="476" height="143.89" fill="white"/>
</clipPath>
</defs>
</svg>
